<svg xmlns="http://www.w3.org/2000/svg" viewBox="0 0 780 478.24"><defs><style>.a,.d{isolation:isolate;}.a{font-size:40px;font-family:HelveticaNeue, Helvetica Neue;}.a,.d,.e{fill:#7e1eda;}.b{letter-spacing:-0.07em;}.c{letter-spacing:0em;}.d{opacity:0.2;}.f,.i,.j{fill:none;}.f,.g,.h,.j{stroke:#7e1eda;}.f{stroke-width:4px;}.g,.h{fill:#fff;}.g,.h,.i,.j{stroke-miterlimit:10;}.g{stroke-width:2px;}.i{stroke:#f9cad3;}</style></defs><text class="a" transform="translate(123.8 459)">- Oops! Sorr<tspan class="b" x="220.76" y="0">y</tspan><tspan class="c" x="237.8" y="0">, page not found -</tspan></text><path class="d" d="M491.68,389.23h-48.4q-20.1-42.6-37.5-55.4c-11.9-8.7-24.1-10.2-36.5-4.4s-18.9,16.4-19.5,32c-.3,7.6,1.1,16.9,4.3,27.9h-45q-3.3-21,.3-38.1,8.25-38.1,45.8-55.6,76.8-35.85,128.7,75.6C486.78,377.33,489.38,383.43,491.68,389.23Z" transform="translate(-19.5 -0.03)"/><path class="e" d="M689.8,382.83l-30.6,6.4H513.3l-.3-1.4L551.5,229l38.3,9.9-33,135.5,52.2-10.9-4.1-19.8,5.1-51.8,25.6-5.4,14.4,68.4,32.5-6.8Z" transform="translate(-19.5 -0.03)"/><path class="e" d="M284.2,321.43l-11.4,67.8H130l3.1-18.3,93.8-133.8,32,23.2-80.2,114.1,52.7,8.9,3.3-19.9,23.8-46.3Z" transform="translate(-19.5 -0.03)"/><line class="f" x1="70" y1="389.5" x2="710" y2="389.5"/><line class="f" y1="389.5" x2="40" y2="389.5"/><line class="f" x1="740" y1="389.5" x2="780" y2="389.5"/><line class="f" x1="400" y1="410.21" x2="700" y2="410.21"/><line class="f" x1="80" y1="410.21" x2="380" y2="410.21"/><path class="g" d="M442.38,42.7h82.8A14.33,14.33,0,0,0,509.38,21c-3.2-13.3-15.7-21.6-27.6-19.7-9.5,1.5-17.5,9.3-19.7,19.7a20.44,20.44,0,0,0-11.8-3.9c-1.4-.1-10.3-.1-13.8,5.9C433.28,28.3,435.28,36.9,442.38,42.7Z" transform="translate(-19.5 -0.03)"/><path class="g" d="M199.38,121.7h82.8a14.33,14.33,0,0,0-15.8-21.7c-3.2-13.3-15.7-21.6-27.6-19.7-9.5,1.5-17.5,9.3-19.7,19.7a20.44,20.44,0,0,0-11.8-3.9c-1.4-.1-10.3-.1-13.8,5.9C190.28,107.3,192.28,115.9,199.38,121.7Z" transform="translate(-19.5 -0.03)"/><path class="g" d="M241,199.5c.11,5.19-3.21,8-7.17,8s-7.2-2.89-7.3-8,5.67-14.17,7.3-17.45C235.66,185.43,240.92,194.32,241,199.5Z" transform="translate(-19.5 -0.03)"/><path class="g" d="M274,162.5c.11,5.19-3.21,8-7.17,8s-7.2-2.89-7.3-8,5.67-14.17,7.3-17.45C268.66,148.43,273.92,157.32,274,162.5Z" transform="translate(-19.5 -0.03)"/><path class="g" d="M490.56,115.5c-.1,5.19,3.21,8,7.17,8s7.2-2.89,7.3-8-5.67-14.17-7.3-17.45C495.93,101.43,490.67,110.32,490.56,115.5Z" transform="translate(-19.5 -0.03)"/><path class="g" d="M457.56,78.5c-.1,5.19,3.21,8,7.17,8s7.2-2.89,7.3-8-5.67-14.17-7.3-17.45C462.93,64.43,457.67,73.32,457.56,78.5Z" transform="translate(-19.5 -0.03)"/><path class="h" d="M419,194.53V256a5.21,5.21,0,0,1-5.12,5.3H367.69a5.22,5.22,0,0,1-5.23-5.2V203.53h8.9a5.21,5.21,0,0,0,5.23-5.19v-9.11h37.13a5.22,5.22,0,0,1,5.23,5.2Z" transform="translate(-19.5 -0.03)"/><path class="i" d="M376.59,198v.21a5.24,5.24,0,0,1-5.19,5.3h-9.11v-.21h9a5.24,5.24,0,0,0,5.29-5.2Z" transform="translate(-19.5 -0.03)"/><path class="h" d="M376.59,189.34v8.9a5.24,5.24,0,0,1-5.19,5.3h-9.11v-.74l13.35-13.46Z" transform="translate(-19.5 -0.03)"/><path class="e" d="M378.11,261.53v26.16a1.41,1.41,0,0,1-1.38,1.38h-.43a1.39,1.39,0,0,1-1.37-1.38V261.53Z" transform="translate(-19.5 -0.03)"/><path class="e" d="M406.49,261.53v26.16a1.4,1.4,0,0,1-1.38,1.38h-.42a1.4,1.4,0,0,1-1.38-1.38V261.53Z" transform="translate(-19.5 -0.03)"/><path class="e" d="M362.46,228.53v3.92l-.31.32-18.44-18.54a1.34,1.34,0,0,1,0-1.9h0L344,212a1.34,1.34,0,0,1,1.9,0h0Z" transform="translate(-19.5 -0.03)"/><path class="e" d="M437.92,213.81l-18.54,18.44-.43-.32v-3.71l16.64-16.63a1.33,1.33,0,0,1,1.89,0h0l.43.21A1.48,1.48,0,0,1,437.92,213.81Z" transform="translate(-19.5 -0.03)"/><path class="j" d="M384.35,229.94a10.59,10.59,0,0,1,13.77,0" transform="translate(-19.5 -0.03)"/><circle class="e" cx="360.17" cy="215.92" r="1.59"/><circle class="e" cx="381.19" cy="215.92" r="1.59"/></svg>